<?xml version="1.0" encoding="utf-8"?>
<svg xmlns="http://www.w3.org/2000/svg" xmlns:xlink="http://www.w3.org/1999/xlink" style="background: rgb(15, 16, 26); display: block; position: relative; shape-rendering: auto;" width="407" height="407" preserveAspectRatio="xMidYMid" viewBox="0 0 407 407"><g transform="scale(1.59)"><g> <line x1="8" y1="-248" x2="8" y2="-216" stroke="#1e3853" stroke-width="12" stroke-linecap="round"></line> <line x1="8" y1="8" x2="8" y2="40" stroke="#1e3853" stroke-width="12" stroke-linecap="round"></line> <line x1="8" y1="264" x2="8" y2="296" stroke="#1e3853" stroke-width="12" stroke-linecap="round"></line> <line x1="8" y1="-200" x2="8" y2="-168" stroke="#1e3853" stroke-width="12" stroke-linecap="round"></line> <line x1="8" y1="56" x2="8" y2="88" stroke="#1e3853" stroke-width="12" stroke-linecap="round"></line> <line x1="8" y1="312" x2="8" y2="344" stroke="#1e3853" stroke-width="12" stroke-linecap="round"></line> <line x1="8" y1="-152" x2="8" y2="-120" stroke="#1e3853" stroke-width="12" stroke-linecap="round"></line> <line x1="8" y1="104" x2="8" y2="136" stroke="#1e3853" stroke-width="12" stroke-linecap="round"></line> <line x1="8" y1="360" x2="8" y2="392" stroke="#1e3853" stroke-width="12" stroke-linecap="round"></line> <line x1="8" y1="-104" x2="8" y2="-56" stroke="#1e3853" stroke-width="12" stroke-linecap="round"></line> <line x1="8" y1="152" x2="8" y2="200" stroke="#1e3853" stroke-width="12" stroke-linecap="round"></line> <line x1="8" y1="408" x2="8" y2="456" stroke="#1e3853" stroke-width="12" stroke-linecap="round"></line> <line x1="8" y1="-40" x2="8" y2="-8" stroke="#1e3853" stroke-width="12" stroke-linecap="round"></line> <line x1="8" y1="216" x2="8" y2="248" stroke="#1e3853" stroke-width="12" stroke-linecap="round"></line> <line x1="8" y1="472" x2="8" y2="504" stroke="#1e3853" stroke-width="12" stroke-linecap="round"></line> <animateTransform attributeName="transform" type="translate" repeatCount="indefinite" dur="33.333333333333336s" keyTimes="0;1" values="0 0;0 -256"></animateTransform>
</g> <g> <line x1="24" y1="-264" x2="24" y2="-216" stroke="#1e3853" stroke-width="12" stroke-linecap="round"></line> <line x1="24" y1="-8" x2="24" y2="40" stroke="#1e3853" stroke-width="12" stroke-linecap="round"></line> <line x1="24" y1="248" x2="24" y2="296" stroke="#1e3853" stroke-width="12" stroke-linecap="round"></line> <line x1="24" y1="-200" x2="24" y2="-184" stroke="#1e3853" stroke-width="12" stroke-linecap="round"></line> <line x1="24" y1="56" x2="24" y2="72" stroke="#1e3853" stroke-width="12" stroke-linecap="round"></line> <line x1="24" y1="312" x2="24" y2="328" stroke="#1e3853" stroke-width="12" stroke-linecap="round"></line> <line x1="24" y1="-168" x2="24" y2="-136" stroke="#1e3853" stroke-width="12" stroke-linecap="round"></line> <line x1="24" y1="88" x2="24" y2="120" stroke="#1e3853" stroke-width="12" stroke-linecap="round"></line> <line x1="24" y1="344" x2="24" y2="376" stroke="#1e3853" stroke-width="12" stroke-linecap="round"></line> <line x1="24" y1="-120" x2="24" y2="-88" stroke="#17a47c" stroke-width="12" stroke-linecap="round"></line> <line x1="24" y1="136" x2="24" y2="168" stroke="#17a47c" stroke-width="12" stroke-linecap="round"></line> <line x1="24" y1="392" x2="24" y2="424" stroke="#17a47c" stroke-width="12" stroke-linecap="round"></line> <line x1="24" y1="-72" x2="24" y2="-40" stroke="#1e3853" stroke-width="12" stroke-linecap="round"></line> <line x1="24" y1="184" x2="24" y2="216" stroke="#1e3853" stroke-width="12" stroke-linecap="round"></line> <line x1="24" y1="440" x2="24" y2="472" stroke="#1e3853" stroke-width="12" stroke-linecap="round"></line> <line x1="24" y1="-24" x2="24" y2="40" stroke="#1e3853" stroke-width="12" stroke-linecap="round"></line> <line x1="24" y1="232" x2="24" y2="296" stroke="#1e3853" stroke-width="12" stroke-linecap="round"></line> <line x1="24" y1="488" x2="24" y2="552" stroke="#1e3853" stroke-width="12" stroke-linecap="round"></line> <animateTransform attributeName="transform" type="translate" repeatCount="indefinite" dur="33.333333333333336s" keyTimes="0;1" values="0 0;0 256"></animateTransform>
</g> <g> <line x1="40" y1="-264" x2="40" y2="-200" stroke="#1e3853" stroke-width="12" stroke-linecap="round"></line> <line x1="40" y1="-8" x2="40" y2="56" stroke="#1e3853" stroke-width="12" stroke-linecap="round"></line> <line x1="40" y1="248" x2="40" y2="312" stroke="#1e3853" stroke-width="12" stroke-linecap="round"></line> <line x1="40" y1="-184" x2="40" y2="-168" stroke="#17a47c" stroke-width="12" stroke-linecap="round"></line> <line x1="40" y1="72" x2="40" y2="88" stroke="#17a47c" stroke-width="12" stroke-linecap="round"></line> <line x1="40" y1="328" x2="40" y2="344" stroke="#17a47c" stroke-width="12" stroke-linecap="round"></line> <line x1="40" y1="-152" x2="40" y2="-136" stroke="#17a47c" stroke-width="12" stroke-linecap="round"></line> <line x1="40" y1="104" x2="40" y2="120" stroke="#17a47c" stroke-width="12" stroke-linecap="round"></line> <line x1="40" y1="360" x2="40" y2="376" stroke="#17a47c" stroke-width="12" stroke-linecap="round"></line> <line x1="40" y1="-120" x2="40" y2="-72" stroke="#17a47c" stroke-width="12" stroke-linecap="round"></line> <line x1="40" y1="136" x2="40" y2="184" stroke="#17a47c" stroke-width="12" stroke-linecap="round"></line> <line x1="40" y1="392" x2="40" y2="440" stroke="#17a47c" stroke-width="12" stroke-linecap="round"></line> <line x1="40" y1="-56" x2="40" y2="-40" stroke="#1e3853" stroke-width="12" stroke-linecap="round"></line> <line x1="40" y1="200" x2="40" y2="216" stroke="#1e3853" stroke-width="12" stroke-linecap="round"></line> <line x1="40" y1="456" x2="40" y2="472" stroke="#1e3853" stroke-width="12" stroke-linecap="round"></line> <line x1="40" y1="-24" x2="40" y2="56" stroke="#1e3853" stroke-width="12" stroke-linecap="round"></line> <line x1="40" y1="232" x2="40" y2="312" stroke="#1e3853" stroke-width="12" stroke-linecap="round"></line> <line x1="40" y1="488" x2="40" y2="568" stroke="#1e3853" stroke-width="12" stroke-linecap="round"></line> <animateTransform attributeName="transform" type="translate" repeatCount="indefinite" dur="16.666666666666668s" keyTimes="0;1" values="0 0;0 256"></animateTransform>
</g> <g> <line x1="56" y1="-248" x2="56" y2="-232" stroke="#1e3853" stroke-width="12" stroke-linecap="round"></line> <line x1="56" y1="8" x2="56" y2="24" stroke="#1e3853" stroke-width="12" stroke-linecap="round"></line> <line x1="56" y1="264" x2="56" y2="280" stroke="#1e3853" stroke-width="12" stroke-linecap="round"></line> <line x1="56" y1="-216" x2="56" y2="-168" stroke="#1e3853" stroke-width="12" stroke-linecap="round"></line> <line x1="56" y1="40" x2="56" y2="88" stroke="#1e3853" stroke-width="12" stroke-linecap="round"></line> <line x1="56" y1="296" x2="56" y2="344" stroke="#1e3853" stroke-width="12" stroke-linecap="round"></line> <line x1="56" y1="-152" x2="56" y2="-136" stroke="#17a47c" stroke-width="12" stroke-linecap="round"></line> <line x1="56" y1="104" x2="56" y2="120" stroke="#17a47c" stroke-width="12" stroke-linecap="round"></line> <line x1="56" y1="360" x2="56" y2="376" stroke="#17a47c" stroke-width="12" stroke-linecap="round"></line> <line x1="56" y1="-120" x2="56" y2="-88" stroke="#17a47c" stroke-width="12" stroke-linecap="round"></line> <line x1="56" y1="136" x2="56" y2="168" stroke="#17a47c" stroke-width="12" stroke-linecap="round"></line> <line x1="56" y1="392" x2="56" y2="424" stroke="#17a47c" stroke-width="12" stroke-linecap="round"></line> <line x1="56" y1="-72" x2="56" y2="-40" stroke="#1e3853" stroke-width="12" stroke-linecap="round"></line> <line x1="56" y1="184" x2="56" y2="216" stroke="#1e3853" stroke-width="12" stroke-linecap="round"></line> <line x1="56" y1="440" x2="56" y2="472" stroke="#1e3853" stroke-width="12" stroke-linecap="round"></line> <line x1="56" y1="-24" x2="56" y2="-8" stroke="#1e3853" stroke-width="12" stroke-linecap="round"></line> <line x1="56" y1="232" x2="56" y2="248" stroke="#1e3853" stroke-width="12" stroke-linecap="round"></line> <line x1="56" y1="488" x2="56" y2="504" stroke="#1e3853" stroke-width="12" stroke-linecap="round"></line> <animateTransform attributeName="transform" type="translate" repeatCount="indefinite" dur="11.11111111111111s" keyTimes="0;1" values="0 0;0 256"></animateTransform>
</g> <g> <line x1="72" y1="-248" x2="72" y2="-184" stroke="#17a47c" stroke-width="12" stroke-linecap="round"></line> <line x1="72" y1="8" x2="72" y2="72" stroke="#17a47c" stroke-width="12" stroke-linecap="round"></line> <line x1="72" y1="264" x2="72" y2="328" stroke="#17a47c" stroke-width="12" stroke-linecap="round"></line> <line x1="72" y1="-168" x2="72" y2="-120" stroke="#17a47c" stroke-width="12" stroke-linecap="round"></line> <line x1="72" y1="88" x2="72" y2="136" stroke="#17a47c" stroke-width="12" stroke-linecap="round"></line> <line x1="72" y1="344" x2="72" y2="392" stroke="#17a47c" stroke-width="12" stroke-linecap="round"></line> <line x1="72" y1="-104" x2="72" y2="-72" stroke="#1e3853" stroke-width="12" stroke-linecap="round"></line> <line x1="72" y1="152" x2="72" y2="184" stroke="#1e3853" stroke-width="12" stroke-linecap="round"></line> <line x1="72" y1="408" x2="72" y2="440" stroke="#1e3853" stroke-width="12" stroke-linecap="round"></line> <line x1="72" y1="-56" x2="72" y2="-8" stroke="#1e3853" stroke-width="12" stroke-linecap="round"></line> <line x1="72" y1="200" x2="72" y2="248" stroke="#1e3853" stroke-width="12" stroke-linecap="round"></line> <line x1="72" y1="456" x2="72" y2="504" stroke="#1e3853" stroke-width="12" stroke-linecap="round"></line> <animateTransform attributeName="transform" type="translate" repeatCount="indefinite" dur="11.11111111111111s" keyTimes="0;1" values="0 0;0 256"></animateTransform>
</g> <g> <line x1="88" y1="-248" x2="88" y2="-200" stroke="#1e3853" stroke-width="12" stroke-linecap="round"></line> <line x1="88" y1="8" x2="88" y2="56" stroke="#1e3853" stroke-width="12" stroke-linecap="round"></line> <line x1="88" y1="264" x2="88" y2="312" stroke="#1e3853" stroke-width="12" stroke-linecap="round"></line> <line x1="88" y1="-184" x2="88" y2="-136" stroke="#17a47c" stroke-width="12" stroke-linecap="round"></line> <line x1="88" y1="72" x2="88" y2="120" stroke="#17a47c" stroke-width="12" stroke-linecap="round"></line> <line x1="88" y1="328" x2="88" y2="376" stroke="#17a47c" stroke-width="12" stroke-linecap="round"></line> <line x1="88" y1="-120" x2="88" y2="-88" stroke="#17a47c" stroke-width="12" stroke-linecap="round"></line> <line x1="88" y1="136" x2="88" y2="168" stroke="#17a47c" stroke-width="12" stroke-linecap="round"></line> <line x1="88" y1="392" x2="88" y2="424" stroke="#17a47c" stroke-width="12" stroke-linecap="round"></line> <line x1="88" y1="-72" x2="88" y2="-40" stroke="#1e3853" stroke-width="12" stroke-linecap="round"></line> <line x1="88" y1="184" x2="88" y2="216" stroke="#1e3853" stroke-width="12" stroke-linecap="round"></line> <line x1="88" y1="440" x2="88" y2="472" stroke="#1e3853" stroke-width="12" stroke-linecap="round"></line> <line x1="88" y1="-24" x2="88" y2="-8" stroke="#17a47c" stroke-width="12" stroke-linecap="round"></line> <line x1="88" y1="232" x2="88" y2="248" stroke="#17a47c" stroke-width="12" stroke-linecap="round"></line> <line x1="88" y1="488" x2="88" y2="504" stroke="#17a47c" stroke-width="12" stroke-linecap="round"></line> <animateTransform attributeName="transform" type="translate" repeatCount="indefinite" dur="11.11111111111111s" keyTimes="0;1" values="0 0;0 -256"></animateTransform>
</g> <g> <line x1="104" y1="-248" x2="104" y2="-216" stroke="#1e3853" stroke-width="12" stroke-linecap="round"></line> <line x1="104" y1="8" x2="104" y2="40" stroke="#1e3853" stroke-width="12" stroke-linecap="round"></line> <line x1="104" y1="264" x2="104" y2="296" stroke="#1e3853" stroke-width="12" stroke-linecap="round"></line> <line x1="104" y1="-200" x2="104" y2="-152" stroke="#17a47c" stroke-width="12" stroke-linecap="round"></line> <line x1="104" y1="56" x2="104" y2="104" stroke="#17a47c" stroke-width="12" stroke-linecap="round"></line> <line x1="104" y1="312" x2="104" y2="360" stroke="#17a47c" stroke-width="12" stroke-linecap="round"></line> <line x1="104" y1="-136" x2="104" y2="-88" stroke="#1e3853" stroke-width="12" stroke-linecap="round"></line> <line x1="104" y1="120" x2="104" y2="168" stroke="#1e3853" stroke-width="12" stroke-linecap="round"></line> <line x1="104" y1="376" x2="104" y2="424" stroke="#1e3853" stroke-width="12" stroke-linecap="round"></line> <line x1="104" y1="-72" x2="104" y2="-40" stroke="#17a47c" stroke-width="12" stroke-linecap="round"></line> <line x1="104" y1="184" x2="104" y2="216" stroke="#17a47c" stroke-width="12" stroke-linecap="round"></line> <line x1="104" y1="440" x2="104" y2="472" stroke="#17a47c" stroke-width="12" stroke-linecap="round"></line> <line x1="104" y1="-24" x2="104" y2="-8" stroke="#1e3853" stroke-width="12" stroke-linecap="round"></line> <line x1="104" y1="232" x2="104" y2="248" stroke="#1e3853" stroke-width="12" stroke-linecap="round"></line> <line x1="104" y1="488" x2="104" y2="504" stroke="#1e3853" stroke-width="12" stroke-linecap="round"></line> <animateTransform attributeName="transform" type="translate" repeatCount="indefinite" dur="11.11111111111111s" keyTimes="0;1" values="0 0;0 -256"></animateTransform>
</g> <g> <line x1="120" y1="-248" x2="120" y2="-184" stroke="#17a47c" stroke-width="12" stroke-linecap="round"></line> <line x1="120" y1="8" x2="120" y2="72" stroke="#17a47c" stroke-width="12" stroke-linecap="round"></line> <line x1="120" y1="264" x2="120" y2="328" stroke="#17a47c" stroke-width="12" stroke-linecap="round"></line> <line x1="120" y1="-168" x2="120" y2="-120" stroke="#1e3853" stroke-width="12" stroke-linecap="round"></line> <line x1="120" y1="88" x2="120" y2="136" stroke="#1e3853" stroke-width="12" stroke-linecap="round"></line> <line x1="120" y1="344" x2="120" y2="392" stroke="#1e3853" stroke-width="12" stroke-linecap="round"></line> <line x1="120" y1="-104" x2="120" y2="-40" stroke="#17a47c" stroke-width="12" stroke-linecap="round"></line> <line x1="120" y1="152" x2="120" y2="216" stroke="#17a47c" stroke-width="12" stroke-linecap="round"></line> <line x1="120" y1="408" x2="120" y2="472" stroke="#17a47c" stroke-width="12" stroke-linecap="round"></line> <line x1="120" y1="-24" x2="120" y2="-8" stroke="#1e3853" stroke-width="12" stroke-linecap="round"></line> <line x1="120" y1="232" x2="120" y2="248" stroke="#1e3853" stroke-width="12" stroke-linecap="round"></line> <line x1="120" y1="488" x2="120" y2="504" stroke="#1e3853" stroke-width="12" stroke-linecap="round"></line> <animateTransform attributeName="transform" type="translate" repeatCount="indefinite" dur="16.666666666666668s" keyTimes="0;1" values="0 0;0 256"></animateTransform>
</g> <g> <line x1="136" y1="-264" x2="136" y2="-248" stroke="#1e3853" stroke-width="12" stroke-linecap="round"></line> <line x1="136" y1="-8" x2="136" y2="8" stroke="#1e3853" stroke-width="12" stroke-linecap="round"></line> <line x1="136" y1="248" x2="136" y2="264" stroke="#1e3853" stroke-width="12" stroke-linecap="round"></line> <line x1="136" y1="-232" x2="136" y2="-184" stroke="#1e3853" stroke-width="12" stroke-linecap="round"></line> <line x1="136" y1="24" x2="136" y2="72" stroke="#1e3853" stroke-width="12" stroke-linecap="round"></line> <line x1="136" y1="280" x2="136" y2="328" stroke="#1e3853" stroke-width="12" stroke-linecap="round"></line> <line x1="136" y1="-168" x2="136" y2="-136" stroke="#1e3853" stroke-width="12" stroke-linecap="round"></line> <line x1="136" y1="88" x2="136" y2="120" stroke="#1e3853" stroke-width="12" stroke-linecap="round"></line> <line x1="136" y1="344" x2="136" y2="376" stroke="#1e3853" stroke-width="12" stroke-linecap="round"></line> <line x1="136" y1="-120" x2="136" y2="-104" stroke="#1e3853" stroke-width="12" stroke-linecap="round"></line> <line x1="136" y1="136" x2="136" y2="152" stroke="#1e3853" stroke-width="12" stroke-linecap="round"></line> <line x1="136" y1="392" x2="136" y2="408" stroke="#1e3853" stroke-width="12" stroke-linecap="round"></line> <line x1="136" y1="-88" x2="136" y2="-40" stroke="#1e3853" stroke-width="12" stroke-linecap="round"></line> <line x1="136" y1="168" x2="136" y2="216" stroke="#1e3853" stroke-width="12" stroke-linecap="round"></line> <line x1="136" y1="424" x2="136" y2="472" stroke="#1e3853" stroke-width="12" stroke-linecap="round"></line> <line x1="136" y1="-24" x2="136" y2="8" stroke="#1e3853" stroke-width="12" stroke-linecap="round"></line> <line x1="136" y1="232" x2="136" y2="264" stroke="#1e3853" stroke-width="12" stroke-linecap="round"></line> <line x1="136" y1="488" x2="136" y2="520" stroke="#1e3853" stroke-width="12" stroke-linecap="round"></line> <animateTransform attributeName="transform" type="translate" repeatCount="indefinite" dur="11.11111111111111s" keyTimes="0;1" values="0 0;0 256"></animateTransform>
</g> <g> <line x1="152" y1="-248" x2="152" y2="-200" stroke="#17a47c" stroke-width="12" stroke-linecap="round"></line> <line x1="152" y1="8" x2="152" y2="56" stroke="#17a47c" stroke-width="12" stroke-linecap="round"></line> <line x1="152" y1="264" x2="152" y2="312" stroke="#17a47c" stroke-width="12" stroke-linecap="round"></line> <line x1="152" y1="-184" x2="152" y2="-152" stroke="#1e3853" stroke-width="12" stroke-linecap="round"></line> <line x1="152" y1="72" x2="152" y2="104" stroke="#1e3853" stroke-width="12" stroke-linecap="round"></line> <line x1="152" y1="328" x2="152" y2="360" stroke="#1e3853" stroke-width="12" stroke-linecap="round"></line> <line x1="152" y1="-136" x2="152" y2="-120" stroke="#17a47c" stroke-width="12" stroke-linecap="round"></line> <line x1="152" y1="120" x2="152" y2="136" stroke="#17a47c" stroke-width="12" stroke-linecap="round"></line> <line x1="152" y1="376" x2="152" y2="392" stroke="#17a47c" stroke-width="12" stroke-linecap="round"></line> <line x1="152" y1="-104" x2="152" y2="-40" stroke="#17a47c" stroke-width="12" stroke-linecap="round"></line> <line x1="152" y1="152" x2="152" y2="216" stroke="#17a47c" stroke-width="12" stroke-linecap="round"></line> <line x1="152" y1="408" x2="152" y2="472" stroke="#17a47c" stroke-width="12" stroke-linecap="round"></line> <line x1="152" y1="-24" x2="152" y2="-8" stroke="#17a47c" stroke-width="12" stroke-linecap="round"></line> <line x1="152" y1="232" x2="152" y2="248" stroke="#17a47c" stroke-width="12" stroke-linecap="round"></line> <line x1="152" y1="488" x2="152" y2="504" stroke="#17a47c" stroke-width="12" stroke-linecap="round"></line> <animateTransform attributeName="transform" type="translate" repeatCount="indefinite" dur="16.666666666666668s" keyTimes="0;1" values="0 0;0 -256"></animateTransform>
</g> <g> <line x1="168" y1="-264" x2="168" y2="-200" stroke="#1e3853" stroke-width="12" stroke-linecap="round"></line> <line x1="168" y1="-8" x2="168" y2="56" stroke="#1e3853" stroke-width="12" stroke-linecap="round"></line> <line x1="168" y1="248" x2="168" y2="312" stroke="#1e3853" stroke-width="12" stroke-linecap="round"></line> <line x1="168" y1="-184" x2="168" y2="-120" stroke="#1e3853" stroke-width="12" stroke-linecap="round"></line> <line x1="168" y1="72" x2="168" y2="136" stroke="#1e3853" stroke-width="12" stroke-linecap="round"></line> <line x1="168" y1="328" x2="168" y2="392" stroke="#1e3853" stroke-width="12" stroke-linecap="round"></line> <line x1="168" y1="-104" x2="168" y2="-40" stroke="#17a47c" stroke-width="12" stroke-linecap="round"></line> <line x1="168" y1="152" x2="168" y2="216" stroke="#17a47c" stroke-width="12" stroke-linecap="round"></line> <line x1="168" y1="408" x2="168" y2="472" stroke="#17a47c" stroke-width="12" stroke-linecap="round"></line> <line x1="168" y1="-24" x2="168" y2="56" stroke="#1e3853" stroke-width="12" stroke-linecap="round"></line> <line x1="168" y1="232" x2="168" y2="312" stroke="#1e3853" stroke-width="12" stroke-linecap="round"></line> <line x1="168" y1="488" x2="168" y2="568" stroke="#1e3853" stroke-width="12" stroke-linecap="round"></line> <animateTransform attributeName="transform" type="translate" repeatCount="indefinite" dur="16.666666666666668s" keyTimes="0;1" values="0 0;0 256"></animateTransform>
</g> <g> <line x1="184" y1="-264" x2="184" y2="-232" stroke="#17a47c" stroke-width="12" stroke-linecap="round"></line> <line x1="184" y1="-8" x2="184" y2="24" stroke="#17a47c" stroke-width="12" stroke-linecap="round"></line> <line x1="184" y1="248" x2="184" y2="280" stroke="#17a47c" stroke-width="12" stroke-linecap="round"></line> <line x1="184" y1="-216" x2="184" y2="-184" stroke="#17a47c" stroke-width="12" stroke-linecap="round"></line> <line x1="184" y1="40" x2="184" y2="72" stroke="#17a47c" stroke-width="12" stroke-linecap="round"></line> <line x1="184" y1="296" x2="184" y2="328" stroke="#17a47c" stroke-width="12" stroke-linecap="round"></line> <line x1="184" y1="-168" x2="184" y2="-120" stroke="#1e3853" stroke-width="12" stroke-linecap="round"></line> <line x1="184" y1="88" x2="184" y2="136" stroke="#1e3853" stroke-width="12" stroke-linecap="round"></line> <line x1="184" y1="344" x2="184" y2="392" stroke="#1e3853" stroke-width="12" stroke-linecap="round"></line> <line x1="184" y1="-104" x2="184" y2="-40" stroke="#17a47c" stroke-width="12" stroke-linecap="round"></line> <line x1="184" y1="152" x2="184" y2="216" stroke="#17a47c" stroke-width="12" stroke-linecap="round"></line> <line x1="184" y1="408" x2="184" y2="472" stroke="#17a47c" stroke-width="12" stroke-linecap="round"></line> <line x1="184" y1="-24" x2="184" y2="24" stroke="#17a47c" stroke-width="12" stroke-linecap="round"></line> <line x1="184" y1="232" x2="184" y2="280" stroke="#17a47c" stroke-width="12" stroke-linecap="round"></line> <line x1="184" y1="488" x2="184" y2="536" stroke="#17a47c" stroke-width="12" stroke-linecap="round"></line> <animateTransform attributeName="transform" type="translate" repeatCount="indefinite" dur="33.333333333333336s" keyTimes="0;1" values="0 0;0 -256"></animateTransform>
</g> <g> <line x1="200" y1="-248" x2="200" y2="-184" stroke="#17a47c" stroke-width="12" stroke-linecap="round"></line> <line x1="200" y1="8" x2="200" y2="72" stroke="#17a47c" stroke-width="12" stroke-linecap="round"></line> <line x1="200" y1="264" x2="200" y2="328" stroke="#17a47c" stroke-width="12" stroke-linecap="round"></line> <line x1="200" y1="-168" x2="200" y2="-120" stroke="#1e3853" stroke-width="12" stroke-linecap="round"></line> <line x1="200" y1="88" x2="200" y2="136" stroke="#1e3853" stroke-width="12" stroke-linecap="round"></line> <line x1="200" y1="344" x2="200" y2="392" stroke="#1e3853" stroke-width="12" stroke-linecap="round"></line> <line x1="200" y1="-104" x2="200" y2="-88" stroke="#1e3853" stroke-width="12" stroke-linecap="round"></line> <line x1="200" y1="152" x2="200" y2="168" stroke="#1e3853" stroke-width="12" stroke-linecap="round"></line> <line x1="200" y1="408" x2="200" y2="424" stroke="#1e3853" stroke-width="12" stroke-linecap="round"></line> <line x1="200" y1="-72" x2="200" y2="-40" stroke="#1e3853" stroke-width="12" stroke-linecap="round"></line> <line x1="200" y1="184" x2="200" y2="216" stroke="#1e3853" stroke-width="12" stroke-linecap="round"></line> <line x1="200" y1="440" x2="200" y2="472" stroke="#1e3853" stroke-width="12" stroke-linecap="round"></line> <line x1="200" y1="-24" x2="200" y2="-8" stroke="#17a47c" stroke-width="12" stroke-linecap="round"></line> <line x1="200" y1="232" x2="200" y2="248" stroke="#17a47c" stroke-width="12" stroke-linecap="round"></line> <line x1="200" y1="488" x2="200" y2="504" stroke="#17a47c" stroke-width="12" stroke-linecap="round"></line> <animateTransform attributeName="transform" type="translate" repeatCount="indefinite" dur="16.666666666666668s" keyTimes="0;1" values="0 0;0 -256"></animateTransform>
</g> <g> <line x1="216" y1="-248" x2="216" y2="-200" stroke="#17a47c" stroke-width="12" stroke-linecap="round"></line> <line x1="216" y1="8" x2="216" y2="56" stroke="#17a47c" stroke-width="12" stroke-linecap="round"></line> <line x1="216" y1="264" x2="216" y2="312" stroke="#17a47c" stroke-width="12" stroke-linecap="round"></line> <line x1="216" y1="-184" x2="216" y2="-120" stroke="#17a47c" stroke-width="12" stroke-linecap="round"></line> <line x1="216" y1="72" x2="216" y2="136" stroke="#17a47c" stroke-width="12" stroke-linecap="round"></line> <line x1="216" y1="328" x2="216" y2="392" stroke="#17a47c" stroke-width="12" stroke-linecap="round"></line> <line x1="216" y1="-104" x2="216" y2="-72" stroke="#1e3853" stroke-width="12" stroke-linecap="round"></line> <line x1="216" y1="152" x2="216" y2="184" stroke="#1e3853" stroke-width="12" stroke-linecap="round"></line> <line x1="216" y1="408" x2="216" y2="440" stroke="#1e3853" stroke-width="12" stroke-linecap="round"></line> <line x1="216" y1="-56" x2="216" y2="-8" stroke="#17a47c" stroke-width="12" stroke-linecap="round"></line> <line x1="216" y1="200" x2="216" y2="248" stroke="#17a47c" stroke-width="12" stroke-linecap="round"></line> <line x1="216" y1="456" x2="216" y2="504" stroke="#17a47c" stroke-width="12" stroke-linecap="round"></line> <animateTransform attributeName="transform" type="translate" repeatCount="indefinite" dur="16.666666666666668s" keyTimes="0;1" values="0 0;0 256"></animateTransform>
</g> <g> <line x1="232" y1="-248" x2="232" y2="-216" stroke="#17a47c" stroke-width="12" stroke-linecap="round"></line> <line x1="232" y1="8" x2="232" y2="40" stroke="#17a47c" stroke-width="12" stroke-linecap="round"></line> <line x1="232" y1="264" x2="232" y2="296" stroke="#17a47c" stroke-width="12" stroke-linecap="round"></line> <line x1="232" y1="-200" x2="232" y2="-184" stroke="#1e3853" stroke-width="12" stroke-linecap="round"></line> <line x1="232" y1="56" x2="232" y2="72" stroke="#1e3853" stroke-width="12" stroke-linecap="round"></line> <line x1="232" y1="312" x2="232" y2="328" stroke="#1e3853" stroke-width="12" stroke-linecap="round"></line> <line x1="232" y1="-168" x2="232" y2="-136" stroke="#1e3853" stroke-width="12" stroke-linecap="round"></line> <line x1="232" y1="88" x2="232" y2="120" stroke="#1e3853" stroke-width="12" stroke-linecap="round"></line> <line x1="232" y1="344" x2="232" y2="376" stroke="#1e3853" stroke-width="12" stroke-linecap="round"></line> <line x1="232" y1="-120" x2="232" y2="-72" stroke="#17a47c" stroke-width="12" stroke-linecap="round"></line> <line x1="232" y1="136" x2="232" y2="184" stroke="#17a47c" stroke-width="12" stroke-linecap="round"></line> <line x1="232" y1="392" x2="232" y2="440" stroke="#17a47c" stroke-width="12" stroke-linecap="round"></line> <line x1="232" y1="-56" x2="232" y2="-8" stroke="#17a47c" stroke-width="12" stroke-linecap="round"></line> <line x1="232" y1="200" x2="232" y2="248" stroke="#17a47c" stroke-width="12" stroke-linecap="round"></line> <line x1="232" y1="456" x2="232" y2="504" stroke="#17a47c" stroke-width="12" stroke-linecap="round"></line> <animateTransform attributeName="transform" type="translate" repeatCount="indefinite" dur="33.333333333333336s" keyTimes="0;1" values="0 0;0 -256"></animateTransform>
</g> <g> <line x1="248" y1="-248" x2="248" y2="-232" stroke="#17a47c" stroke-width="12" stroke-linecap="round"></line> <line x1="248" y1="8" x2="248" y2="24" stroke="#17a47c" stroke-width="12" stroke-linecap="round"></line> <line x1="248" y1="264" x2="248" y2="280" stroke="#17a47c" stroke-width="12" stroke-linecap="round"></line> <line x1="248" y1="-216" x2="248" y2="-200" stroke="#1e3853" stroke-width="12" stroke-linecap="round"></line> <line x1="248" y1="40" x2="248" y2="56" stroke="#1e3853" stroke-width="12" stroke-linecap="round"></line> <line x1="248" y1="296" x2="248" y2="312" stroke="#1e3853" stroke-width="12" stroke-linecap="round"></line> <line x1="248" y1="-184" x2="248" y2="-168" stroke="#17a47c" stroke-width="12" stroke-linecap="round"></line> <line x1="248" y1="72" x2="248" y2="88" stroke="#17a47c" stroke-width="12" stroke-linecap="round"></line> <line x1="248" y1="328" x2="248" y2="344" stroke="#17a47c" stroke-width="12" stroke-linecap="round"></line> <line x1="248" y1="-152" x2="248" y2="-136" stroke="#1e3853" stroke-width="12" stroke-linecap="round"></line> <line x1="248" y1="104" x2="248" y2="120" stroke="#1e3853" stroke-width="12" stroke-linecap="round"></line> <line x1="248" y1="360" x2="248" y2="376" stroke="#1e3853" stroke-width="12" stroke-linecap="round"></line> <line x1="248" y1="-120" x2="248" y2="-88" stroke="#17a47c" stroke-width="12" stroke-linecap="round"></line> <line x1="248" y1="136" x2="248" y2="168" stroke="#17a47c" stroke-width="12" stroke-linecap="round"></line> <line x1="248" y1="392" x2="248" y2="424" stroke="#17a47c" stroke-width="12" stroke-linecap="round"></line> <line x1="248" y1="-72" x2="248" y2="-8" stroke="#1e3853" stroke-width="12" stroke-linecap="round"></line> <line x1="248" y1="184" x2="248" y2="248" stroke="#1e3853" stroke-width="12" stroke-linecap="round"></line> <line x1="248" y1="440" x2="248" y2="504" stroke="#1e3853" stroke-width="12" stroke-linecap="round"></line> <animateTransform attributeName="transform" type="translate" repeatCount="indefinite" dur="33.333333333333336s" keyTimes="0;1" values="0 0;0 256"></animateTransform>
</g></g></svg>