<?xml version="1.0" encoding="utf-8"?>
<svg xmlns="http://www.w3.org/2000/svg" xmlns:xlink="http://www.w3.org/1999/xlink" style="margin: auto; background: rgb(15, 16, 26); display: block; z-index: 1; position: relative; shape-rendering: auto;" preserveAspectRatio="xMidYMid" viewBox="0 0 1708 1045">
<g transform="translate(854,522.5) scale(1,1) translate(-854,-522.5)"><defs>
  <linearGradient id="ldbk-photon-jobkvpllnp-lg" x1="0" x2="0" y1="754.75" y2="1045" gradientUnits="userSpaceOnUse">
    <stop stop-color="#1d3f72" offset="0"></stop>
    <stop stop-color="#071121" offset="1"></stop>
  </linearGradient>
  <mask id="ldbk-photon-jobkvpllnp-mask">
  <g><path d="M-0.5 1345 L-0.5 765.8609589013139 A28.5 28.5 0 0 0 57.5 765.8609589013139 L57.5 1345" fill="#fff">
  <animateTransform attributeName="transform" type="translate" dur="33.333333333333336s" repeatCount="indefinite" keyTimes="0;0.5;1" calcMode="spline" keySplines="0.5 0 0.5 1;0.5 0 0.5 1" values="0 0;0 99.22300539625371;0 0" begin="0s"></animateTransform>
</path><path d="M-0.5 1132.6006621536064 L-0.5 1163.2013243072129 A28.5 28.5 0 0 0 57.5 1163.2013243072129 L57.5 1132.6006621536064 A28.5 28.5 0 0 0 -0.5 1132.6006621536064" fill="#000">
  <animateTransform attributeName="transform" type="translate" dur="33.333333333333336s" repeatCount="indefinite" keyTimes="0;1" values="0 0;0 -399.21196324558076" begin="0s"></animateTransform>
  <animate attributeName="opacity" dur="33.333333333333336s" repeatCount="indefinite" keyTimes="0;0.3;1" values="1;1;0" begin="0s"></animate>
</path><path d="M56.5 1345 L56.5 705.5841137289483 A28.5 28.5 0 0 1 114.5 705.5841137289483 L114.5 1345" fill="#fff">
  <animateTransform attributeName="transform" type="translate" dur="33.333333333333336s" repeatCount="indefinite" keyTimes="0;0.5;1" calcMode="spline" keySplines="0.5 0 0.5 1;0.5 0 0.5 1" values="0 0;0 -108.45549939414015;0 0" begin="-3.333333333333334s"></animateTransform>
</path><path d="M56.5 762.5841137289483 L56.5 787.0840898553814 A28.5 28.5 0 0 0 114.5 787.0840898553814 L114.5 762.5841137289483 A28.5 28.5 0 0 0 56.5 762.5841137289483" fill="#fff">
  <animateTransform attributeName="transform" type="translate" dur="11.111111111111112s" repeatCount="indefinite" keyTimes="0;1" values="0;0" begin="-3.333333333333334s"></animateTransform>
  <animate attributeName="opacity" dur="11.111111111111112s" repeatCount="indefinite" keyTimes="0;0.3;1" values="1;1;0" begin="-3.333333333333334s"></animate>
</path><path d="M113.5 1345 L113.5 745.6440410119242 A28.5 28.5 0 0 0 171.5 745.6440410119242 L171.5 1345" fill="#fff">
  <animateTransform attributeName="transform" type="translate" dur="16.666666666666668s" repeatCount="indefinite" keyTimes="0;0.5;1" calcMode="spline" keySplines="0.5 0 0.5 1;0.5 0 0.5 1" values="0 0;0 144.31945135742745;0 0" begin="-6.666666666666668s"></animateTransform>
</path><path d="M113.5 1119.8369637663593 L113.5 1137.6739275327186 A28.5 28.5 0 0 0 171.5 1137.6739275327186 L171.5 1119.8369637663593 A28.5 28.5 0 0 0 113.5 1119.8369637663593" fill="#000">
  <animateTransform attributeName="transform" type="translate" dur="33.333333333333336s" repeatCount="indefinite" keyTimes="0;1" values="0 0;0 -632.1613334391436" begin="-6.666666666666668s"></animateTransform>
  <animate attributeName="opacity" dur="33.333333333333336s" repeatCount="indefinite" keyTimes="0;0.3;1" values="1;1;0" begin="-6.666666666666668s"></animate>
</path><path d="M170.5 1345 L170.5 687.3530163536832 A28.5 28.5 0 0 1 228.5 687.3530163536832 L228.5 1345" fill="#fff">
  <animateTransform attributeName="transform" type="translate" dur="33.333333333333336s" repeatCount="indefinite" keyTimes="0;0.5;1" calcMode="spline" keySplines="0.5 0 0.5 1;0.5 0 0.5 1" values="0 0;0 -169.8996000565984;0 0" begin="-10.000000000000002s"></animateTransform>
</path><path d="M170.5 744.3530163536832 L170.5 755.9760567896825 A28.5 28.5 0 0 0 228.5 755.9760567896825 L228.5 744.3530163536832 A28.5 28.5 0 0 0 170.5 744.3530163536832" fill="#fff">
  <animateTransform attributeName="transform" type="translate" dur="16.666666666666668s" repeatCount="indefinite" keyTimes="0;1" values="0;0" begin="-10.000000000000002s"></animateTransform>
  <animate attributeName="opacity" dur="16.666666666666668s" repeatCount="indefinite" keyTimes="0;0.3;1" values="1;1;0" begin="-10.000000000000002s"></animate>
</path><path d="M227.5 1345 L227.5 747.9439764960603 A28.5 28.5 0 0 0 285.5 747.9439764960603 L285.5 1345" fill="#fff">
  <animateTransform attributeName="transform" type="translate" dur="33.333333333333336s" repeatCount="indefinite" keyTimes="0;0.5;1" calcMode="spline" keySplines="0.5 0 0.5 1;0.5 0 0.5 1" values="0 0;0 178.6412575352831;0 0" begin="-13.333333333333336s"></animateTransform>
</path><path d="M227.5 1134.9063204525282 L227.5 1167.8126409050565 A28.5 28.5 0 0 0 285.5 1167.8126409050565 L285.5 1134.9063204525282 A28.5 28.5 0 0 0 227.5 1134.9063204525282" fill="#000">
  <animateTransform attributeName="transform" type="translate" dur="11.111111111111112s" repeatCount="indefinite" keyTimes="0;1" values="0 0;0 -519.3038986732402" begin="-13.333333333333336s"></animateTransform>
  <animate attributeName="opacity" dur="11.111111111111112s" repeatCount="indefinite" keyTimes="0;0.3;1" values="1;1;0" begin="-13.333333333333336s"></animate>
</path><path d="M284.5 1345 L284.5 730.3402057826838 A28.5 28.5 0 0 1 342.5 730.3402057826838 L342.5 1345" fill="#fff">
  <animateTransform attributeName="transform" type="translate" dur="16.666666666666668s" repeatCount="indefinite" keyTimes="0;0.5;1" calcMode="spline" keySplines="0.5 0 0.5 1;0.5 0 0.5 1" values="0 0;0 -177.80899229475955;0 0" begin="-16.666666666666668s"></animateTransform>
</path><path d="M284.5 787.3402057826838 L284.5 801.3670459226229 A28.5 28.5 0 0 0 342.5 801.3670459226229 L342.5 787.3402057826838 A28.5 28.5 0 0 0 284.5 787.3402057826838" fill="#fff">
  <animateTransform attributeName="transform" type="translate" dur="16.666666666666668s" repeatCount="indefinite" keyTimes="0;1" values="0;0" begin="-16.666666666666668s"></animateTransform>
  <animate attributeName="opacity" dur="16.666666666666668s" repeatCount="indefinite" keyTimes="0;0.3;1" values="1;1;0" begin="-16.666666666666668s"></animate>
</path><path d="M341.5 1345 L341.5 764.5748701851819 A28.5 28.5 0 0 0 399.5 764.5748701851819 L399.5 1345" fill="#fff">
  <animateTransform attributeName="transform" type="translate" dur="16.666666666666668s" repeatCount="indefinite" keyTimes="0;0.5;1" calcMode="spline" keySplines="0.5 0 0.5 1;0.5 0 0.5 1" values="0 0;0 113.00640507646212;0 0" begin="-20.000000000000004s"></animateTransform>
</path><path d="M341.5 1133.2601347541051 L341.5 1164.5202695082103 A28.5 28.5 0 0 0 399.5 1164.5202695082103 L399.5 1133.2601347541051 A28.5 28.5 0 0 0 341.5 1133.2601347541051" fill="#000">
  <animateTransform attributeName="transform" type="translate" dur="33.333333333333336s" repeatCount="indefinite" keyTimes="0;1" values="0 0;0 -455.36213933346136" begin="-20.000000000000004s"></animateTransform>
  <animate attributeName="opacity" dur="33.333333333333336s" repeatCount="indefinite" keyTimes="0;0.3;1" values="1;1;0" begin="-20.000000000000004s"></animate>
</path><path d="M398.5 1345 L398.5 727.4722114658534 A28.5 28.5 0 0 1 456.5 727.4722114658534 L456.5 1345" fill="#fff">
  <animateTransform attributeName="transform" type="translate" dur="16.666666666666668s" repeatCount="indefinite" keyTimes="0;0.5;1" calcMode="spline" keySplines="0.5 0 0.5 1;0.5 0 0.5 1" values="0 0;0 -94.23463970568962;0 0" begin="-23.333333333333332s"></animateTransform>
</path><path d="M398.5 784.4722114658534 L398.5 802.5581824377286 A28.5 28.5 0 0 0 456.5 802.5581824377286 L456.5 784.4722114658534 A28.5 28.5 0 0 0 398.5 784.4722114658534" fill="#fff">
  <animateTransform attributeName="transform" type="translate" dur="33.333333333333336s" repeatCount="indefinite" keyTimes="0;1" values="0;0" begin="-23.333333333333332s"></animateTransform>
  <animate attributeName="opacity" dur="33.333333333333336s" repeatCount="indefinite" keyTimes="0;0.3;1" values="1;1;0" begin="-23.333333333333332s"></animate>
</path><path d="M455.5 1345 L455.5 747.8117459591141 A28.5 28.5 0 0 0 513.5 747.8117459591141 L513.5 1345" fill="#fff">
  <animateTransform attributeName="transform" type="translate" dur="33.333333333333336s" repeatCount="indefinite" keyTimes="0;0.5;1" calcMode="spline" keySplines="0.5 0 0.5 1;0.5 0 0.5 1" values="0 0;0 149.15398364746125;0 0" begin="-26.66666666666667s"></animateTransform>
</path><path d="M455.5 1119.0346712076723 L455.5 1136.0693424153446 A28.5 28.5 0 0 0 513.5 1136.0693424153446 L513.5 1119.0346712076723 A28.5 28.5 0 0 0 455.5 1119.0346712076723" fill="#000">
  <animateTransform attributeName="transform" type="translate" dur="33.333333333333336s" repeatCount="indefinite" keyTimes="0;1" values="0 0;0 -575.7483806893995" begin="-26.66666666666667s"></animateTransform>
  <animate attributeName="opacity" dur="33.333333333333336s" repeatCount="indefinite" keyTimes="0;0.3;1" values="1;1;0" begin="-26.66666666666667s"></animate>
</path><path d="M512.5 1345 L512.5 690.0540344261717 A28.5 28.5 0 0 1 570.5 690.0540344261717 L570.5 1345" fill="#fff">
  <animateTransform attributeName="transform" type="translate" dur="33.333333333333336s" repeatCount="indefinite" keyTimes="0;0.5;1" calcMode="spline" keySplines="0.5 0 0.5 1;0.5 0 0.5 1" values="0 0;0 -167.96415627187656;0 0" begin="-30s"></animateTransform>
</path><path d="M512.5 747.0540344261717 L512.5 775.4690632471403 A28.5 28.5 0 0 0 570.5 775.4690632471403 L570.5 747.0540344261717 A28.5 28.5 0 0 0 512.5 747.0540344261717" fill="#fff">
  <animateTransform attributeName="transform" type="translate" dur="16.666666666666668s" repeatCount="indefinite" keyTimes="0;1" values="0;0" begin="-30s"></animateTransform>
  <animate attributeName="opacity" dur="16.666666666666668s" repeatCount="indefinite" keyTimes="0;0.3;1" values="1;1;0" begin="-30s"></animate>
</path><path d="M569.5 1345 L569.5 752.5670638644964 A28.5 28.5 0 0 0 627.5 752.5670638644964 L627.5 1345" fill="#fff">
  <animateTransform attributeName="transform" type="translate" dur="16.666666666666668s" repeatCount="indefinite" keyTimes="0;0.5;1" calcMode="spline" keySplines="0.5 0 0.5 1;0.5 0 0.5 1" values="0 0;0 138.66029627424535;0 0" begin="-33.333333333333336s"></animateTransform>
</path><path d="M569.5 1128.364173235409 L569.5 1154.728346470818 A28.5 28.5 0 0 0 627.5 1154.728346470818 L627.5 1128.364173235409 A28.5 28.5 0 0 0 569.5 1128.364173235409" fill="#000">
  <animateTransform attributeName="transform" type="translate" dur="11.111111111111112s" repeatCount="indefinite" keyTimes="0;1" values="0 0;0 -461.965473507492" begin="-33.333333333333336s"></animateTransform>
  <animate attributeName="opacity" dur="11.111111111111112s" repeatCount="indefinite" keyTimes="0;0.3;1" values="1;1;0" begin="-33.333333333333336s"></animate>
</path><path d="M626.5 1345 L626.5 717.946426850815 A28.5 28.5 0 0 1 684.5 717.946426850815 L684.5 1345" fill="#fff">
  <animateTransform attributeName="transform" type="translate" dur="11.111111111111112s" repeatCount="indefinite" keyTimes="0;0.5;1" calcMode="spline" keySplines="0.5 0 0.5 1;0.5 0 0.5 1" values="0 0;0 -151.20821333677577;0 0" begin="-36.666666666666664s"></animateTransform>
</path><path d="M626.5 774.946426850815 L626.5 805.6990647652656 A28.5 28.5 0 0 0 684.5 805.6990647652656 L684.5 774.946426850815 A28.5 28.5 0 0 0 626.5 774.946426850815" fill="#fff">
  <animateTransform attributeName="transform" type="translate" dur="16.666666666666668s" repeatCount="indefinite" keyTimes="0;1" values="0;0" begin="-36.666666666666664s"></animateTransform>
  <animate attributeName="opacity" dur="16.666666666666668s" repeatCount="indefinite" keyTimes="0;0.3;1" values="1;1;0" begin="-36.666666666666664s"></animate>
</path><path d="M683.5 1345 L683.5 770.0051971580133 A28.5 28.5 0 0 0 741.5 770.0051971580133 L741.5 1345" fill="#fff">
  <animateTransform attributeName="transform" type="translate" dur="11.111111111111112s" repeatCount="indefinite" keyTimes="0;0.5;1" calcMode="spline" keySplines="0.5 0 0.5 1;0.5 0 0.5 1" values="0 0;0 115.49132943495948;0 0" begin="-40.00000000000001s"></animateTransform>
</path><path d="M683.5 1122.9300635228485 L683.5 1143.860127045697 A28.5 28.5 0 0 0 741.5 1143.860127045697 L741.5 1122.9300635228485 A28.5 28.5 0 0 0 683.5 1122.9300635228485" fill="#000">
  <animateTransform attributeName="transform" type="translate" dur="16.666666666666668s" repeatCount="indefinite" keyTimes="0;1" values="0 0;0 -580.4792845118324" begin="-40.00000000000001s"></animateTransform>
  <animate attributeName="opacity" dur="16.666666666666668s" repeatCount="indefinite" keyTimes="0;0.3;1" values="1;1;0" begin="-40.00000000000001s"></animate>
</path><path d="M740.5 1345 L740.5 729.716372182786 A28.5 28.5 0 0 1 798.5 729.716372182786 L798.5 1345" fill="#fff">
  <animateTransform attributeName="transform" type="translate" dur="16.666666666666668s" repeatCount="indefinite" keyTimes="0;0.5;1" calcMode="spline" keySplines="0.5 0 0.5 1;0.5 0 0.5 1" values="0 0;0 -92.87466383763918;0 0" begin="-43.333333333333336s"></animateTransform>
</path><path d="M740.5 786.716372182786 L740.5 806.6324226685414 A28.5 28.5 0 0 0 798.5 806.6324226685414 L798.5 786.716372182786 A28.5 28.5 0 0 0 740.5 786.716372182786" fill="#fff">
  <animateTransform attributeName="transform" type="translate" dur="16.666666666666668s" repeatCount="indefinite" keyTimes="0;1" values="0;0" begin="-43.333333333333336s"></animateTransform>
  <animate attributeName="opacity" dur="16.666666666666668s" repeatCount="indefinite" keyTimes="0;0.3;1" values="1;1;0" begin="-43.333333333333336s"></animate>
</path><path d="M797.5 1345 L797.5 783.2443687720076 A28.5 28.5 0 0 0 855.5 783.2443687720076 L855.5 1345" fill="#fff">
  <animateTransform attributeName="transform" type="translate" dur="33.333333333333336s" repeatCount="indefinite" keyTimes="0;0.5;1" calcMode="spline" keySplines="0.5 0 0.5 1;0.5 0 0.5 1" values="0 0;0 167.98625362888708;0 0" begin="-46.666666666666664s"></animateTransform>
</path><path d="M797.5 1125.3673032691527 L797.5 1148.7346065383053 A28.5 28.5 0 0 0 855.5 1148.7346065383053 L855.5 1125.3673032691527 A28.5 28.5 0 0 0 797.5 1125.3673032691527" fill="#000">
  <animateTransform attributeName="transform" type="translate" dur="11.111111111111112s" repeatCount="indefinite" keyTimes="0;1" values="0 0;0 -511.8036943429709" begin="-46.666666666666664s"></animateTransform>
  <animate attributeName="opacity" dur="11.111111111111112s" repeatCount="indefinite" keyTimes="0;0.3;1" values="1;1;0" begin="-46.666666666666664s"></animate>
</path><path d="M854.5 1345 L854.5 741.3154480293506 A28.5 28.5 0 0 1 912.5 741.3154480293506 L912.5 1345" fill="#fff">
  <animateTransform attributeName="transform" type="translate" dur="11.111111111111112s" repeatCount="indefinite" keyTimes="0;0.5;1" calcMode="spline" keySplines="0.5 0 0.5 1;0.5 0 0.5 1" values="0 0;0 -128.95179982346556;0 0" begin="-50s"></animateTransform>
</path><path d="M854.5 798.3154480293506 L854.5 837.4901565838421 A28.5 28.5 0 0 0 912.5 837.4901565838421 L912.5 798.3154480293506 A28.5 28.5 0 0 0 854.5 798.3154480293506" fill="#fff">
  <animateTransform attributeName="transform" type="translate" dur="16.666666666666668s" repeatCount="indefinite" keyTimes="0;1" values="0;0" begin="-50s"></animateTransform>
  <animate attributeName="opacity" dur="16.666666666666668s" repeatCount="indefinite" keyTimes="0;0.3;1" values="1;1;0" begin="-50s"></animate>
</path><path d="M911.5 1345 L911.5 769.2024794129113 A28.5 28.5 0 0 0 969.5 769.2024794129113 L969.5 1345" fill="#fff">
  <animateTransform attributeName="transform" type="translate" dur="11.111111111111112s" repeatCount="indefinite" keyTimes="0;0.5;1" calcMode="spline" keySplines="0.5 0 0.5 1;0.5 0 0.5 1" values="0 0;0 150.85488806480325;0 0" begin="-53.33333333333334s"></animateTransform>
</path><path d="M911.5 1127.0958443661448 L911.5 1152.1916887322895 A28.5 28.5 0 0 0 969.5 1152.1916887322895 L969.5 1127.0958443661448 A28.5 28.5 0 0 0 911.5 1127.0958443661448" fill="#000">
  <animateTransform attributeName="transform" type="translate" dur="16.666666666666668s" repeatCount="indefinite" keyTimes="0;1" values="0 0;0 -430.32804820046925" begin="-53.33333333333334s"></animateTransform>
  <animate attributeName="opacity" dur="16.666666666666668s" repeatCount="indefinite" keyTimes="0;0.3;1" values="1;1;0" begin="-53.33333333333334s"></animate>
</path><path d="M968.5 1345 L968.5 743.1604450982431 A28.5 28.5 0 0 1 1026.5 743.1604450982431 L1026.5 1345" fill="#fff">
  <animateTransform attributeName="transform" type="translate" dur="33.333333333333336s" repeatCount="indefinite" keyTimes="0;0.5;1" calcMode="spline" keySplines="0.5 0 0.5 1;0.5 0 0.5 1" values="0 0;0 -94.62426231003745;0 0" begin="-56.66666666666667s"></animateTransform>
</path><path d="M968.5 800.1604450982431 L968.5 816.5027868893112 A28.5 28.5 0 0 0 1026.5 816.5027868893112 L1026.5 800.1604450982431 A28.5 28.5 0 0 0 968.5 800.1604450982431" fill="#fff">
  <animateTransform attributeName="transform" type="translate" dur="16.666666666666668s" repeatCount="indefinite" keyTimes="0;1" values="0;0" begin="-56.66666666666667s"></animateTransform>
  <animate attributeName="opacity" dur="16.666666666666668s" repeatCount="indefinite" keyTimes="0;0.3;1" values="1;1;0" begin="-56.66666666666667s"></animate>
</path><path d="M1025.5 1345 L1025.5 789.4696828225391 A28.5 28.5 0 0 0 1083.5 789.4696828225391 L1083.5 1345" fill="#fff">
  <animateTransform attributeName="transform" type="translate" dur="11.111111111111112s" repeatCount="indefinite" keyTimes="0;0.5;1" calcMode="spline" keySplines="0.5 0 0.5 1;0.5 0 0.5 1" values="0 0;0 96.2038810772617;0 0" begin="-60s"></animateTransform>
</path><path d="M1025.5 1135.3064753606222 L1025.5 1168.6129507212445 A28.5 28.5 0 0 0 1083.5 1168.6129507212445 L1083.5 1135.3064753606222 A28.5 28.5 0 0 0 1025.5 1135.3064753606222" fill="#000">
  <animateTransform attributeName="transform" type="translate" dur="16.666666666666668s" repeatCount="indefinite" keyTimes="0;1" values="0 0;0 -526.7282333365713" begin="-60s"></animateTransform>
  <animate attributeName="opacity" dur="16.666666666666668s" repeatCount="indefinite" keyTimes="0;0.3;1" values="1;1;0" begin="-60s"></animate>
</path><path d="M1082.5 1345 L1082.5 746.9025868487118 A28.5 28.5 0 0 1 1140.5 746.9025868487118 L1140.5 1345" fill="#fff">
  <animateTransform attributeName="transform" type="translate" dur="33.333333333333336s" repeatCount="indefinite" keyTimes="0;0.5;1" calcMode="spline" keySplines="0.5 0 0.5 1;0.5 0 0.5 1" values="0 0;0 -116.26833629428093;0 0" begin="-63.333333333333336s"></animateTransform>
</path><path d="M1082.5 803.9025868487118 L1082.5 816.7256488581559 A28.5 28.5 0 0 0 1140.5 816.7256488581559 L1140.5 803.9025868487118 A28.5 28.5 0 0 0 1082.5 803.9025868487118" fill="#fff">
  <animateTransform attributeName="transform" type="translate" dur="11.111111111111112s" repeatCount="indefinite" keyTimes="0;1" values="0;0" begin="-63.333333333333336s"></animateTransform>
  <animate attributeName="opacity" dur="11.111111111111112s" repeatCount="indefinite" keyTimes="0;0.3;1" values="1;1;0" begin="-63.333333333333336s"></animate>
</path><path d="M1139.5 1345 L1139.5 777.5299545191381 A28.5 28.5 0 0 0 1197.5 777.5299545191381 L1197.5 1345" fill="#fff">
  <animateTransform attributeName="transform" type="translate" dur="33.333333333333336s" repeatCount="indefinite" keyTimes="0;0.5;1" calcMode="spline" keySplines="0.5 0 0.5 1;0.5 0 0.5 1" values="0 0;0 125.10003313598637;0 0" begin="-66.66666666666667s"></animateTransform>
</path><path d="M1139.5 1119.4001385000236 L1139.5 1136.8002770000471 A28.5 28.5 0 0 0 1197.5 1136.8002770000471 L1197.5 1119.4001385000236 A28.5 28.5 0 0 0 1139.5 1119.4001385000236" fill="#000">
  <animateTransform attributeName="transform" type="translate" dur="33.333333333333336s" repeatCount="indefinite" keyTimes="0;1" values="0 0;0 -540.8287461463688" begin="-66.66666666666667s"></animateTransform>
  <animate attributeName="opacity" dur="33.333333333333336s" repeatCount="indefinite" keyTimes="0;0.3;1" values="1;1;0" begin="-66.66666666666667s"></animate>
</path><path d="M1196.5 1345 L1196.5 742.61004175452 A28.5 28.5 0 0 1 1254.5 742.61004175452 L1254.5 1345" fill="#fff">
  <animateTransform attributeName="transform" type="translate" dur="11.111111111111112s" repeatCount="indefinite" keyTimes="0;0.5;1" calcMode="spline" keySplines="0.5 0 0.5 1;0.5 0 0.5 1" values="0 0;0 -98.38821065478155;0 0" begin="-70s"></animateTransform>
</path><path d="M1196.5 799.61004175452 L1196.5 810.0201774458046 A28.5 28.5 0 0 0 1254.5 810.0201774458046 L1254.5 799.61004175452 A28.5 28.5 0 0 0 1196.5 799.61004175452" fill="#fff">
  <animateTransform attributeName="transform" type="translate" dur="33.333333333333336s" repeatCount="indefinite" keyTimes="0;1" values="0;0" begin="-70s"></animateTransform>
  <animate attributeName="opacity" dur="33.333333333333336s" repeatCount="indefinite" keyTimes="0;0.3;1" values="1;1;0" begin="-70s"></animate>
</path><path d="M1253.5 1345 L1253.5 814.6564865728933 A28.5 28.5 0 0 0 1311.5 814.6564865728933 L1311.5 1345" fill="#fff">
  <animateTransform attributeName="transform" type="translate" dur="33.333333333333336s" repeatCount="indefinite" keyTimes="0;0.5;1" calcMode="spline" keySplines="0.5 0 0.5 1;0.5 0 0.5 1" values="0 0;0 167.35201188449525;0 0" begin="-73.33333333333333s"></animateTransform>
</path><path d="M1253.5 1129.2015149457968 L1253.5 1156.4030298915936 A28.5 28.5 0 0 0 1311.5 1156.4030298915936 L1311.5 1129.2015149457968 A28.5 28.5 0 0 0 1253.5 1129.2015149457968" fill="#000">
  <animateTransform attributeName="transform" type="translate" dur="16.666666666666668s" repeatCount="indefinite" keyTimes="0;1" values="0 0;0 -618.4383265724637" begin="-73.33333333333333s"></animateTransform>
  <animate attributeName="opacity" dur="16.666666666666668s" repeatCount="indefinite" keyTimes="0;0.3;1" values="1;1;0" begin="-73.33333333333333s"></animate>
</path><path d="M1310.5 1345 L1310.5 778.619205655263 A28.5 28.5 0 0 1 1368.5 778.619205655263 L1368.5 1345" fill="#fff">
  <animateTransform attributeName="transform" type="translate" dur="11.111111111111112s" repeatCount="indefinite" keyTimes="0;0.5;1" calcMode="spline" keySplines="0.5 0 0.5 1;0.5 0 0.5 1" values="0 0;0 -101.57031755403128;0 0" begin="-76.66666666666669s"></animateTransform>
</path><path d="M1310.5 835.619205655263 L1310.5 848.2998272297475 A28.5 28.5 0 0 0 1368.5 848.2998272297475 L1368.5 835.619205655263 A28.5 28.5 0 0 0 1310.5 835.619205655263" fill="#fff">
  <animateTransform attributeName="transform" type="translate" dur="33.333333333333336s" repeatCount="indefinite" keyTimes="0;1" values="0;0" begin="-76.66666666666669s"></animateTransform>
  <animate attributeName="opacity" dur="33.333333333333336s" repeatCount="indefinite" keyTimes="0;0.3;1" values="1;1;0" begin="-76.66666666666669s"></animate>
</path><path d="M1367.5 1345 L1367.5 795.5354031425131 A28.5 28.5 0 0 0 1425.5 795.5354031425131 L1425.5 1345" fill="#fff">
  <animateTransform attributeName="transform" type="translate" dur="33.333333333333336s" repeatCount="indefinite" keyTimes="0;0.5;1" calcMode="spline" keySplines="0.5 0 0.5 1;0.5 0 0.5 1" values="0 0;0 111.35075279055805;0 0" begin="-80.00000000000001s"></animateTransform>
</path><path d="M1367.5 1113.1272476241038 L1367.5 1124.2544952482076 A28.5 28.5 0 0 0 1425.5 1124.2544952482076 L1425.5 1113.1272476241038 A28.5 28.5 0 0 0 1367.5 1113.1272476241038" fill="#000">
  <animateTransform attributeName="transform" type="translate" dur="11.111111111111112s" repeatCount="indefinite" keyTimes="0;1" values="0 0;0 -555.2365639477055" begin="-80.00000000000001s"></animateTransform>
  <animate attributeName="opacity" dur="11.111111111111112s" repeatCount="indefinite" keyTimes="0;0.3;1" values="1;1;0" begin="-80.00000000000001s"></animate>
</path><path d="M1424.5 1345 L1424.5 728.4095181621138 A28.5 28.5 0 0 1 1482.5 728.4095181621138 L1482.5 1345" fill="#fff">
  <animateTransform attributeName="transform" type="translate" dur="11.111111111111112s" repeatCount="indefinite" keyTimes="0;0.5;1" calcMode="spline" keySplines="0.5 0 0.5 1;0.5 0 0.5 1" values="0 0;0 -137.0267737519792;0 0" begin="-83.33333333333334s"></animateTransform>
</path><path d="M1424.5 785.4095181621138 L1424.5 807.7403113534915 A28.5 28.5 0 0 0 1482.5 807.7403113534915 L1482.5 785.4095181621138 A28.5 28.5 0 0 0 1424.5 785.4095181621138" fill="#fff">
  <animateTransform attributeName="transform" type="translate" dur="16.666666666666668s" repeatCount="indefinite" keyTimes="0;1" values="0;0" begin="-83.33333333333334s"></animateTransform>
  <animate attributeName="opacity" dur="16.666666666666668s" repeatCount="indefinite" keyTimes="0;0.3;1" values="1;1;0" begin="-83.33333333333334s"></animate>
</path><path d="M1481.5 1345 L1481.5 765.0480319155497 A28.5 28.5 0 0 0 1539.5 765.0480319155497 L1539.5 1345" fill="#fff">
  <animateTransform attributeName="transform" type="translate" dur="11.111111111111112s" repeatCount="indefinite" keyTimes="0;0.5;1" calcMode="spline" keySplines="0.5 0 0.5 1;0.5 0 0.5 1" values="0 0;0 140.26490437326063;0 0" begin="-86.66666666666667s"></animateTransform>
</path><path d="M1481.5 1134.207162981993 L1481.5 1166.414325963986 A28.5 28.5 0 0 0 1539.5 1166.414325963986 L1539.5 1134.207162981993 A28.5 28.5 0 0 0 1481.5 1134.207162981993" fill="#000">
  <animateTransform attributeName="transform" type="translate" dur="33.333333333333336s" repeatCount="indefinite" keyTimes="0;1" values="0 0;0 -494.5018836463147" begin="-86.66666666666667s"></animateTransform>
  <animate attributeName="opacity" dur="33.333333333333336s" repeatCount="indefinite" keyTimes="0;0.3;1" values="1;1;0" begin="-86.66666666666667s"></animate>
</path><path d="M1538.5 1345 L1538.5 736.4854278248752 A28.5 28.5 0 0 1 1596.5 736.4854278248752 L1596.5 1345" fill="#fff">
  <animateTransform attributeName="transform" type="translate" dur="16.666666666666668s" repeatCount="indefinite" keyTimes="0;0.5;1" calcMode="spline" keySplines="0.5 0 0.5 1;0.5 0 0.5 1" values="0 0;0 -175.4687082011397;0 0" begin="-90.00000000000001s"></animateTransform>
</path><path d="M1538.5 793.4854278248752 L1538.5 820.1386780531694 A28.5 28.5 0 0 0 1596.5 820.1386780531694 L1596.5 793.4854278248752 A28.5 28.5 0 0 0 1538.5 793.4854278248752" fill="#fff">
  <animateTransform attributeName="transform" type="translate" dur="16.666666666666668s" repeatCount="indefinite" keyTimes="0;1" values="0;0" begin="-90.00000000000001s"></animateTransform>
  <animate attributeName="opacity" dur="16.666666666666668s" repeatCount="indefinite" keyTimes="0;0.3;1" values="1;1;0" begin="-90.00000000000001s"></animate>
</path><path d="M1595.5 1345 L1595.5 783.295336939522 A28.5 28.5 0 0 0 1653.5 783.295336939522 L1653.5 1345" fill="#fff">
  <animateTransform attributeName="transform" type="translate" dur="33.333333333333336s" repeatCount="indefinite" keyTimes="0;0.5;1" calcMode="spline" keySplines="0.5 0 0.5 1;0.5 0 0.5 1" values="0 0;0 153.41040169092582;0 0" begin="-93.33333333333333s"></animateTransform>
</path><path d="M1595.5 1123.840061037238 L1595.5 1145.680122074476 A28.5 28.5 0 0 0 1653.5 1145.680122074476 L1653.5 1123.840061037238 A28.5 28.5 0 0 0 1595.5 1123.840061037238" fill="#000">
  <animateTransform attributeName="transform" type="translate" dur="11.111111111111112s" repeatCount="indefinite" keyTimes="0;1" values="0 0;0 -602.7480917817771" begin="-93.33333333333333s"></animateTransform>
  <animate attributeName="opacity" dur="11.111111111111112s" repeatCount="indefinite" keyTimes="0;0.3;1" values="1;1;0" begin="-93.33333333333333s"></animate>
</path><path d="M1652.5 1345 L1652.5 730.9949892857301 A28.5 28.5 0 0 1 1710.5 730.9949892857301 L1710.5 1345" fill="#fff">
  <animateTransform attributeName="transform" type="translate" dur="16.666666666666668s" repeatCount="indefinite" keyTimes="0;0.5;1" calcMode="spline" keySplines="0.5 0 0.5 1;0.5 0 0.5 1" values="0 0;0 -120.32999675320315;0 0" begin="-96.66666666666667s"></animateTransform>
</path><path d="M1652.5 787.9949892857301 L1652.5 824.8120535748888 A28.5 28.5 0 0 0 1710.5 824.8120535748888 L1710.5 787.9949892857301 A28.5 28.5 0 0 0 1652.5 787.9949892857301" fill="#fff">
  <animateTransform attributeName="transform" type="translate" dur="11.111111111111112s" repeatCount="indefinite" keyTimes="0;1" values="0;0" begin="-96.66666666666667s"></animateTransform>
  <animate attributeName="opacity" dur="11.111111111111112s" repeatCount="indefinite" keyTimes="0;0.3;1" values="1;1;0" begin="-96.66666666666667s"></animate>
</path>    </g>
  </mask>
</defs>
<rect x="0" y="0" width="1708" height="1045" fill="url(#ldbk-photon-jobkvpllnp-lg)" mask="url(#ldbk-photon-jobkvpllnp-mask)"></rect></g>
</svg>