<?xml version="1.0" encoding="utf-8"?>
<svg xmlns="http://www.w3.org/2000/svg" xmlns:xlink="http://www.w3.org/1999/xlink" style="background: rgb(0, 0, 0); display: block; position: relative; shape-rendering: auto;" width="115" height="115" preserveAspectRatio="xMidYMid" viewBox="0 0 115 115"><g transform="scale(0.45000000000000007)">
<!-- Generator: Adobe Illustrator 21.0.0, SVG Export Plug-In . SVG Version: 6.00 Build 0)  -->





<g data-idx="0" data-dup="r" dx="-384" dy="-128" style="transform-origin: -256px 80.5px; animation: 3.7037s linear 0s infinite normal forwards running slide-ltr-aab79211-0395-48d8-92f6-13b9d14ed275;"><g transform="translate(-384,-128)"><polygon fill="#333435" points="192,224 128,224 128,160 64,160 64,224 -1,224 -1,256 -1,257 257,257 257,256 257,160 192,160 " data-fill="c1" style="fill: rgb(29, 63, 114);"></polygon></g></g><g data-idx="0" data-dup="r" dx="-128" dy="-128" style="transform-origin: 0px 80.5px; animation: 3.7037s linear 0s infinite normal forwards running slide-ltr-aab79211-0395-48d8-92f6-13b9d14ed275;"><g transform="translate(-128,-128)"><polygon fill="#333435" points="192,224 128,224 128,160 64,160 64,224 -1,224 -1,256 -1,257 257,257 257,256 257,160 192,160 " data-fill="c1" style="fill: rgb(29, 63, 114);"></polygon></g></g><g data-idx="0" data-dup="r" dx="128" dy="-128" style="transform-origin: 256px 80.5px; animation: 3.7037s linear 0s infinite normal forwards running slide-ltr-aab79211-0395-48d8-92f6-13b9d14ed275;"><g transform="translate(128,-128)"><polygon fill="#333435" points="192,224 128,224 128,160 64,160 64,224 -1,224 -1,256 -1,257 257,257 257,256 257,160 192,160 " data-fill="c1" style="fill: rgb(29, 63, 114);"></polygon></g></g><g data-idx="0" data-dup="r" dx="384" dy="-128" style="transform-origin: 512px 80.5px; animation: 3.7037s linear 0s infinite normal forwards running slide-ltr-aab79211-0395-48d8-92f6-13b9d14ed275;"><g transform="translate(384,-128)"><polygon fill="#333435" points="192,224 128,224 128,160 64,160 64,224 -1,224 -1,256 -1,257 257,257 257,256 257,160 192,160 " data-fill="c1" style="fill: rgb(29, 63, 114);"></polygon></g></g><g data-idx="1" data-dup="rb" dx="-384" dy="-128" style="transform-origin: -256px -80.5px; animation: 1.85185s linear 0s infinite normal forwards running slide-ltr-aab79211-0395-48d8-92f6-13b9d14ed275;"><g transform="translate(-384,-128)"><polygon fill="#333435" points="-1,0 -1,32 64,32 64,96 128,96 128,32 192,32 192,96 257,96 257,0 257,-1 -1,-1 " data-fill="c1" style="fill: rgb(29, 63, 114);"></polygon></g></g><g data-idx="1" data-dup="rb" dx="-128" dy="-128" style="transform-origin: 0px -80.5px; animation: 1.85185s linear 0s infinite normal forwards running slide-ltr-aab79211-0395-48d8-92f6-13b9d14ed275;"><g transform="translate(-128,-128)"><polygon fill="#333435" points="-1,0 -1,32 64,32 64,96 128,96 128,32 192,32 192,96 257,96 257,0 257,-1 -1,-1 " data-fill="c1" style="fill: rgb(29, 63, 114);"></polygon></g></g><g data-idx="1" data-dup="rb" dx="128" dy="-128" style="transform-origin: 256px -80.5px; animation: 1.85185s linear 0s infinite normal forwards running slide-ltr-aab79211-0395-48d8-92f6-13b9d14ed275;"><g transform="translate(128,-128)"><polygon fill="#333435" points="-1,0 -1,32 64,32 64,96 128,96 128,32 192,32 192,96 257,96 257,0 257,-1 -1,-1 " data-fill="c1" style="fill: rgb(29, 63, 114);"></polygon></g></g><g data-idx="1" data-dup="rb" dx="384" dy="-128" style="transform-origin: 512px -80.5px; animation: 1.85185s linear 0s infinite normal forwards running slide-ltr-aab79211-0395-48d8-92f6-13b9d14ed275;"><g transform="translate(384,-128)"><polygon fill="#333435" points="-1,0 -1,32 64,32 64,96 128,96 128,32 192,32 192,96 257,96 257,0 257,-1 -1,-1 " data-fill="c1" style="fill: rgb(29, 63, 114);"></polygon></g></g><g data-idx="0" data-dup="r" dx="-384" dy="128" style="transform-origin: -256px 336.5px; animation: 3.7037s linear 0s infinite normal forwards running slide-ltr-aab79211-0395-48d8-92f6-13b9d14ed275;"><g transform="translate(-384,128)"><polygon fill="#333435" points="192,224 128,224 128,160 64,160 64,224 -1,224 -1,256 -1,257 257,257 257,256 257,160 192,160 " data-fill="c1" style="fill: rgb(29, 63, 114);"></polygon></g></g><g data-idx="0" data-dup="r" dx="-128" dy="128" style="transform-origin: 0px 336.5px; animation: 3.7037s linear 0s infinite normal forwards running slide-ltr-aab79211-0395-48d8-92f6-13b9d14ed275;"><g transform="translate(-128,128)"><polygon fill="#333435" points="192,224 128,224 128,160 64,160 64,224 -1,224 -1,256 -1,257 257,257 257,256 257,160 192,160 " data-fill="c1" style="fill: rgb(29, 63, 114);"></polygon></g></g><g data-idx="0" data-dup="r" dx="128" dy="128" style="transform-origin: 256px 336.5px; animation: 3.7037s linear 0s infinite normal forwards running slide-ltr-aab79211-0395-48d8-92f6-13b9d14ed275;"><g transform="translate(128,128)"><polygon fill="#333435" points="192,224 128,224 128,160 64,160 64,224 -1,224 -1,256 -1,257 257,257 257,256 257,160 192,160 " data-fill="c1" style="fill: rgb(29, 63, 114);"></polygon></g></g><g data-idx="0" data-dup="r" dx="384" dy="128" style="transform-origin: 512px 336.5px; animation: 3.7037s linear 0s infinite normal forwards running slide-ltr-aab79211-0395-48d8-92f6-13b9d14ed275;"><g transform="translate(384,128)"><polygon fill="#333435" points="192,224 128,224 128,160 64,160 64,224 -1,224 -1,256 -1,257 257,257 257,256 257,160 192,160 " data-fill="c1" style="fill: rgb(29, 63, 114);"></polygon></g></g><g data-idx="1" data-dup="rb" dx="-384" dy="128" style="transform-origin: -256px 175.5px; animation: 1.85185s linear 0s infinite normal forwards running slide-ltr-aab79211-0395-48d8-92f6-13b9d14ed275;"><g transform="translate(-384,128)"><polygon fill="#333435" points="-1,0 -1,32 64,32 64,96 128,96 128,32 192,32 192,96 257,96 257,0 257,-1 -1,-1 " data-fill="c1" style="fill: rgb(29, 63, 114);"></polygon></g></g><g data-idx="1" data-dup="rb" dx="-384" dy="384" style="transform-origin: -256px 431.5px; animation: 1.85185s linear 0s infinite normal forwards running slide-ltr-aab79211-0395-48d8-92f6-13b9d14ed275;"><g transform="translate(-384,384)"><polygon fill="#333435" points="-1,0 -1,32 64,32 64,96 128,96 128,32 192,32 192,96 257,96 257,0 257,-1 -1,-1 " data-fill="c1" style="fill: rgb(29, 63, 114);"></polygon></g></g><g data-idx="1" data-dup="rb" dx="-128" dy="128" style="transform-origin: 0px 175.5px; animation: 1.85185s linear 0s infinite normal forwards running slide-ltr-aab79211-0395-48d8-92f6-13b9d14ed275;"><g transform="translate(-128,128)"><polygon fill="#333435" points="-1,0 -1,32 64,32 64,96 128,96 128,32 192,32 192,96 257,96 257,0 257,-1 -1,-1 " data-fill="c1" style="fill: rgb(29, 63, 114);"></polygon></g></g><g data-idx="1" data-dup="rb" dx="-128" dy="384" style="transform-origin: 0px 431.5px; animation: 1.85185s linear 0s infinite normal forwards running slide-ltr-aab79211-0395-48d8-92f6-13b9d14ed275;"><g transform="translate(-128,384)"><polygon fill="#333435" points="-1,0 -1,32 64,32 64,96 128,96 128,32 192,32 192,96 257,96 257,0 257,-1 -1,-1 " data-fill="c1" style="fill: rgb(29, 63, 114);"></polygon></g></g><g data-idx="1" data-dup="rb" dx="128" dy="128" style="transform-origin: 256px 175.5px; animation: 1.85185s linear 0s infinite normal forwards running slide-ltr-aab79211-0395-48d8-92f6-13b9d14ed275;"><g transform="translate(128,128)"><polygon fill="#333435" points="-1,0 -1,32 64,32 64,96 128,96 128,32 192,32 192,96 257,96 257,0 257,-1 -1,-1 " data-fill="c1" style="fill: rgb(29, 63, 114);"></polygon></g></g><g data-idx="1" data-dup="rb" dx="384" dy="128" style="transform-origin: 512px 175.5px; animation: 1.85185s linear 0s infinite normal forwards running slide-ltr-aab79211-0395-48d8-92f6-13b9d14ed275;"><g transform="translate(384,128)"><polygon fill="#333435" points="-1,0 -1,32 64,32 64,96 128,96 128,32 192,32 192,96 257,96 257,0 257,-1 -1,-1 " data-fill="c1" style="fill: rgb(29, 63, 114);"></polygon></g></g><g data-idx="1" data-dup="rb" dx="128" dy="384" style="transform-origin: 256px 431.5px; animation: 1.85185s linear 0s infinite normal forwards running slide-ltr-aab79211-0395-48d8-92f6-13b9d14ed275;"><g transform="translate(128,384)"><polygon fill="#333435" points="-1,0 -1,32 64,32 64,96 128,96 128,32 192,32 192,96 257,96 257,0 257,-1 -1,-1 " data-fill="c1" style="fill: rgb(29, 63, 114);"></polygon></g></g></g><style id="slide-ltr-aab79211-0395-48d8-92f6-13b9d14ed275" data-anikit="">@keyframes slide-ltr-aab79211-0395-48d8-92f6-13b9d14ed275
{
  0% {
    animation-timing-function: cubic-bezier(0.4652,0.1051,0.774,0.6426);
    transform: translate(0px,0px) rotate(0deg) scale(1,1) skewX(0deg) skewY(0deg);
    opacity: 1;
  }
  22.5% {
    animation-timing-function: cubic-bezier(0.4142,0.3131,0.7623,0.6513);
    transform: translate(47.8px,0px) rotate(0deg) scale(1,1) skewX(0deg) skewY(0deg);
    opacity: 1;
  }
  45% {
    animation-timing-function: cubic-bezier(0.3615,0.331,0.9646,1.3461);
    transform: translate(147.8px,0px) rotate(0deg) scale(1,1) skewX(0deg) skewY(0deg);
    opacity: 1;
  }
  47.5% {
    animation-timing-function: cubic-bezier(0.7006,0.3332,0.6667,0.6667);
    transform: translate(165.6px,0px) rotate(0deg) scale(1,1) skewX(0deg) skewY(0deg);
    opacity: 0;
  }
  50% {
    animation-timing-function: cubic-bezier(0.1604,0.3176,-0.0218,0.6965);
    transform: translate(-200px,0px) rotate(0deg) scale(1,1) skewX(0deg) skewY(0deg);
    opacity: 0;
  }
  51% {
    animation-timing-function: cubic-bezier(0.1983,0.3529,0.5263,0.6945);
    transform: translate(-179.8px,0px) rotate(0deg) scale(1,1) skewX(0deg) skewY(0deg);
    opacity: 0;
  }
  80.4% {
    animation-timing-function: cubic-bezier(0.2342,0.3708,0.5422,0.9065);
    transform: translate(-38.4px,0px) rotate(0deg) scale(1,1) skewX(0deg) skewY(0deg);
    opacity: 1;
  }
  100% {
    transform: translate(0px,0px) rotate(0deg) scale(1,1) skewX(0deg) skewY(0deg);
    opacity: 1;
  }
}</style></svg>