<?xml version="1.0" encoding="utf-8"?>
<svg xmlns="http://www.w3.org/2000/svg" xmlns:xlink="http://www.w3.org/1999/xlink" style="margin: auto; background: rgb(15, 16, 26); display: block; shape-rendering: auto;" width="261px" height="261px" viewBox="0 0 100 100" preserveAspectRatio="xMidYMid">
<g transform="translate(50 50)">
<g>
<animateTransform attributeName="transform" type="rotate" values="0;22.5" keyTimes="0;1" dur="0.49504950495049505s" repeatCount="indefinite"></animateTransform><path d="M27.45450782658469 -5.5 L32.45450782658469 -5.5 L32.45450782658469 5.5 L27.45450782658469 5.5 A28 28 0 0 1 27.46941673416052 5.425047860159572 L27.46941673416052 5.425047860159572 L32.088814396716955 7.33846502198502 L27.879296640700968 17.501139879609173 L23.259898978144534 15.587722717783725 A28 28 0 0 1 23.302355954843186 15.524181361791165 L23.302355954843186 15.524181361791165 L26.837889860775924 19.059715267723902 L19.059715267723906 26.837889860775924 L15.524181361791168 23.302355954843186 A28 28 0 0 1 15.587722717783727 23.259898978144534 L15.587722717783727 23.259898978144534 L17.501139879609177 27.879296640700968 L7.338465021985023 32.088814396716955 L5.425047860159575 27.46941673416052 A28 28 0 0 1 5.500000000000001 27.45450782658469 L5.500000000000001 27.45450782658469 L5.500000000000001 32.45450782658469 L-5.499999999999997 32.45450782658469 L-5.499999999999997 27.454507826584692 A28 28 0 0 1 -5.425047860159571 27.46941673416052 L-5.425047860159571 27.46941673416052 L-7.338465021985019 32.088814396716955 L-17.50113987960918 27.879296640700968 L-15.58772271778373 23.259898978144534 A28 28 0 0 1 -15.524181361791157 23.302355954843193 L-15.524181361791157 23.302355954843193 L-19.059715267723895 26.83788986077593 L-26.837889860775928 19.059715267723902 L-23.30235595484319 15.524181361791165 A28 28 0 0 1 -23.25989897814453 15.587722717783734 L-23.25989897814453 15.587722717783734 L-27.879296640700964 17.501139879609184 L-32.088814396716955 7.338465021985021 L-27.46941673416052 5.425047860159571 A28 28 0 0 1 -27.45450782658469 5.500000000000009 L-27.45450782658469 5.500000000000009 L-32.45450782658469 5.50000000000001 L-32.45450782658469 -5.500000000000001 L-27.45450782658469 -5.500000000000002 A28 28 0 0 1 -27.46941673416052 -5.425047860159564 L-27.46941673416052 -5.425047860159564 L-32.088814396716955 -7.338465021985012 L-27.879296640700968 -17.501139879609177 L-23.259898978144534 -15.587722717783727 A28 28 0 0 1 -23.302355954843193 -15.524181361791157 L-23.302355954843193 -15.524181361791157 L-26.83788986077593 -19.059715267723895 L-19.059715267723902 -26.837889860775928 L-15.524181361791165 -23.30235595484319 A28 28 0 0 1 -15.587722717783747 -23.25989897814452 L-15.587722717783747 -23.25989897814452 L-17.501139879609198 -27.87929664070095 L-7.338465021985035 -32.08881439671695 L-5.425047860159584 -27.469416734160518 A28 28 0 0 1 -5.50000000000001 -27.45450782658469 L-5.50000000000001 -27.45450782658469 L-5.500000000000011 -32.45450782658469 L5.499999999999999 -32.45450782658469 L5.5 -27.45450782658469 A28 28 0 0 1 5.425047860159574 -27.46941673416052 L5.425047860159574 -27.46941673416052 L7.338465021985024 -32.088814396716955 L17.501139879609187 -27.87929664070096 L15.587722717783738 -23.259898978144527 A28 28 0 0 1 15.524181361791154 -23.302355954843197 L15.524181361791154 -23.302355954843197 L19.05971526772389 -26.837889860775935 L26.837889860775924 -19.059715267723906 L23.302355954843186 -15.524181361791168 A28 28 0 0 1 23.25989897814452 -15.587722717783747 L23.25989897814452 -15.587722717783747 L27.87929664070095 -17.501139879609198 L32.08881439671695 -7.338465021985038 L27.469416734160518 -5.425047860159586 A28 28 0 0 1 27.45450782658469 -5.5000000000000115 M0 -13A13 13 0 1 0 0 13 A13 13 0 1 0 0 -13" fill="#45c8df"></path></g></g>
<!-- [ldio] generated by https://loading.io/ --></svg>